<svg width="42" height="42" viewBox="0 0 42 42" fill="none" xmlns="http://www.w3.org/2000/svg">
<path d="M26.5149 5.54219L41.9569 21L26.5149 36.4578C25.7878 37.1856 24.9247 37.763 23.9747 38.1568C23.0248 38.5507 22.0066 38.7535 20.9784 38.7535C19.9502 38.7535 18.932 38.5507 17.9821 38.1568C17.0321 37.763 16.1689 37.1856 15.4419 36.4578L-0.000132089 21L15.4419 5.54219C16.9102 4.07231 18.9018 3.24654 20.9784 3.24654C23.055 3.24654 25.0465 4.07231 26.5149 5.54219Z" fill="url(#paint0_linear_714_5073)"/>
<path fill-rule="evenodd" clip-rule="evenodd" d="M23.8283 9.3986C23.0716 8.64365 22.0468 8.21973 20.9785 8.21973C19.9101 8.21973 18.8853 8.64365 18.1286 9.3986L6.53821 20.9986L9.67244 24.1268L24.1115 9.67292L23.8283 9.3986ZM26.6377 12.2101L17.8558 21.001L20.9774 24.1258L29.7593 15.3349L26.6377 12.2101ZM20.9793 29.2038L32.298 17.8758L35.4184 20.9971L23.8349 32.6017C23.0788 33.3578 22.0538 33.7825 20.985 33.7825C19.9163 33.7825 18.8913 33.3578 18.1352 32.6017L12.2053 26.6657L15.3188 23.5329L20.9793 29.2038Z" fill="url(#paint1_linear_714_5073)"/>
<defs>
<linearGradient id="paint0_linear_714_5073" x1="6.33512" y1="28.2551" x2="37.2062" y2="12.9895" gradientUnits="userSpaceOnUse">
<stop stop-color="#590BD8"/>
<stop offset="1" stop-color="#FF0088"/>
</linearGradient>
<linearGradient id="paint1_linear_714_5073" x1="20.9783" y1="5.89942" x2="20.9783" y2="33.7825" gradientUnits="userSpaceOnUse">
<stop stop-color="white" stop-opacity="0.7"/>
<stop offset="1" stop-color="white"/>
</linearGradient>
</defs>
</svg>
